<?xml version="1.0" standalone="no"?><!DOCTYPE svg PUBLIC "-//W3C//DTD SVG 1.1//EN" "http://www.w3.org/Graphics/SVG/1.1/DTD/svg11.dtd"><svg t="1648297196829" class="icon" viewBox="0 0 1024 1024" version="1.1" xmlns="http://www.w3.org/2000/svg" p-id="1523" xmlns:xlink="http://www.w3.org/1999/xlink" width="200" height="200"><defs><style type="text/css"></style></defs><path d="M551.857 337.888l111.38-111.38 22.292 22.277-111.396 111.38zM430.08 661.662l-11.028 11.027 55.139 122.88-44.111 22.056-44.11-89.797-34.66-11.028-11.027-11.028 67.742-66.166z" p-id="1524"></path><path d="M712.074 543.508l18.904 63.015c-74.043 40.96-170.141 29.932-233.156-33.083l-11.028-11.028 44.11-44.11 11.028 11.027c45.686 44.111 118.154 50.413 170.142 14.179zM932.628 25.206l31.507 12.603-234.732 234.733-9.452 9.452-22.056-22.056 110.277-111.852L921.6 36.234z" p-id="1525"></path><path d="M719.95 281.994l11.028 11.028-100.824 100.824c-22.056 22.056-33.083 55.139-44.11 66.166l-55.14-55.138 44.111-44.11L686.868 248.91l33.083 33.083z" p-id="1526"></path><path d="M686.868 248.91L575.015 360.764l-44.11 44.11 11.027 11.029 44.111-44.111 111.852-111.853 33.083 33.084-11.027-11.028z" p-id="1527"></path><path d="M575.015 448.985l-44.11-44.111 55.138 55.138c11.028-11.027 22.055-44.11 44.11-66.166l100.825-100.824-11.027-11.028-100.825 100.824c-22.055 22.056-33.083 55.139-44.11 66.167z" p-id="1528"></path><path d="M296.172 615.975l200.074-200.073 11.028-11.028-11.028-11.028 23.63-22.055 33.084-33.083 11.028 11.027 11.027 11.028-44.11 44.11 55.138 55.14-11.028 11.027-44.11 45.686-45.687 44.11-22.055 22.056-55.138 56.714-78.77 77.194-44.11-44.11z" p-id="1529"></path><path d="M563.988 460.012l-45.686 45.686-44.111 44.111-22.056 22.056-55.138 55.138-78.77 78.77 11.028 11.027 78.77-77.194 55.138-56.714 22.055-22.055 45.687-44.11 44.11-45.687 11.028-11.028-11.028-11.027z" p-id="1530"></path><path d="M296.172 615.975l-11.027 56.714 11.027 11.028 11.028-56.714L507.274 426.93l11.028-11.027-11.028-11.028-11.028 11.028z m245.76-200.073l44.111 44.11-44.11-44.11z m-22.055-44.111l-23.63 22.055 11.027 11.028 23.63-22.056 33.084-33.083-11.028-11.027z" p-id="1531"></path><path d="M285.145 672.69l44.11 44.11-11.027 11.028-144.936 256.787-22.055 22.056-88.222-111.853 133.908-133.907c42.535 20.48 75.619-70.893 77.194-77.194l11.028-11.028z" p-id="1532"></path><path d="M162.265 973.588l-20.48 20.48 9.452 12.603 22.055-22.056 144.936-256.787L307.2 716.8z" p-id="1533"></path><path d="M274.117 683.717c-3.15 7.877-34.659 99.25-77.194 77.194L63.015 894.818l9.453 12.604L201.649 778.24c42.536 20.48 80.345-75.618 83.496-83.495l-11.028-11.028z m222.082-290.202l55.705-55.705 22.276 22.276-55.705 55.705z" p-id="1534"></path><path d="M274.952 683.638L286.09 672.5l44.567 44.568-11.137 11.138z" p-id="1535"></path><path d="M519.12 416.61l11.139-11.138 44.552 44.552-11.138 11.154z" p-id="1536"></path><path d="M151.237 1014.548c-1.575 0-4.726 0-6.302-1.576-3.15-3.15-3.15-7.877 0-11.027l22.056-22.056c3.15-3.15 7.877-3.15 11.027 0s3.151 7.877 0 11.028l-20.48 22.055c-1.575 0-4.726 1.576-6.301 1.576z" p-id="1537"></path><path d="M151.237 1014.548c-1.575 0-4.726-1.576-6.302-3.151L55.138 899.545c-3.15-3.151-1.575-7.877 1.576-11.028 3.15-3.15 7.877-1.575 11.028 1.575l89.796 111.853c3.151 3.15 1.576 7.877-1.575 11.027-1.575 1.576-3.15 1.576-4.726 1.576z" p-id="1538"></path><path d="M63.015 902.695c-1.575 0-4.726 0-6.301-1.575-3.15-3.15-3.15-7.877 0-11.028l133.908-133.907c3.15-3.151 7.876-3.151 11.027 0s3.151 7.877 0 11.027L67.742 901.12c-1.576 1.575-3.151 1.575-4.727 1.575z m110.277 89.797c-1.575 0-3.15 0-3.15-1.575-3.151-1.575-4.727-6.302-3.151-11.028l144.935-255.212c1.576-3.15 6.302-4.726 11.028-3.15 3.15 1.575 4.726 6.3 3.15 11.027L181.17 987.766c-1.575 3.15-4.726 4.726-7.877 4.726z" p-id="1539"></path><path d="M209.526 771.938c-4.726 0-11.028-1.575-15.754-4.726-3.15-1.575-6.301-6.301-3.15-11.027 1.575-3.151 6.301-4.727 11.027-3.151 6.302 3.15 11.028 3.15 17.33 0 20.48-7.877 39.384-44.11 48.836-74.043 0-3.151 3.151-6.302 7.877-6.302s7.877 3.151 7.877 7.877v3.15c-6.301 15.755-26.781 70.893-58.289 83.496-7.877 4.726-11.028 4.726-15.754 4.726z" p-id="1540"></path><path d="M329.255 724.677c-1.575 0-4.726 0-6.301-1.575l-44.11-45.687c-3.152-3.15-3.152-7.877 0-11.027s7.876-3.151 11.027 0l44.11 44.11c3.151 3.151 3.151 7.877 0 11.028 0 3.15-1.575 3.15-4.726 3.15z" p-id="1541"></path><path d="M285.145 680.566s-1.576 0 0 0c-6.302-1.575-7.877-4.726-7.877-9.452l11.027-55.139c1.576-4.726 4.727-6.301 9.453-6.301s6.301 4.726 6.301 9.452l-11.027 55.139c-1.576 3.15-4.727 6.301-7.877 6.301z" p-id="1542"></path><path d="M296.172 623.852c-1.575 0-4.726 0-6.301-1.575-3.151-3.15-3.151-7.877 0-11.028l200.074-200.074c3.15-3.15 7.877-3.15 11.027 0 3.151 3.151 3.151 7.877 0 11.028L302.474 622.277c-1.576 1.575-4.726 1.575-6.302 1.575z m33.083 100.825c-1.575 0-4.726 0-6.301-1.575-3.15-3.151-3.15-7.877 0-11.028l245.76-245.76c3.15-3.15 7.877-3.15 11.028 0s3.15 7.877 0 11.028l-244.185 245.76c-1.575 1.575-3.15 1.575-6.302 1.575z" p-id="1543"></path><path d="M586.043 467.89c-1.575 0-4.726 0-6.301-1.576l-55.139-55.139c-3.15-3.15-3.15-7.877 0-11.027s7.877-3.151 11.028 0l55.138 55.138c3.151 3.15 3.151 7.877 0 11.028 0 1.575-3.15 1.575-4.726 1.575z" p-id="1544"></path><path d="M518.302 423.778c-1.576 0-4.727 0-6.302-1.575-3.15-3.15-3.15-7.877 0-11.028l166.99-166.99c3.152-3.151 7.878-3.151 11.028 0s3.151 7.877 0 11.027L524.603 422.203c-1.575 1.575-3.15 1.575-6.301 1.575z m45.686-88.221c-1.576 0-4.726 0-6.302-1.575-3.15-3.151-3.15-7.877 0-11.028l100.825-100.825c3.15-3.15 7.877-3.15 11.027 0s3.151 7.877 0 11.028L568.714 333.982c-1.576 0-3.15 1.575-4.726 1.575z m22.055 132.332c-1.575 0-4.726 0-6.301-1.575-3.151-3.15-3.151-7.877 0-11.028 3.15-3.15 7.876-12.603 12.603-20.48 7.877-14.178 17.329-31.508 31.507-45.686l100.825-100.825 11.028 11.028L634.88 400.148c-12.603 12.603-20.48 28.357-28.357 42.535-6.301 11.028-11.028 18.905-15.754 25.206h-4.726z" p-id="1545"></path><path d="M507.274 412.75c-1.576 0-4.726 0-6.302-1.575l-22.055-22.055c-3.15-3.15-3.15-7.877 0-11.028s7.877-3.15 11.028 0L512 400.148c3.15 3.15 3.15 7.877 0 11.027 0 1.576-1.575 1.576-4.726 1.576z" p-id="1546"></path><path d="M496.246 401.723c-1.575 0-4.726 0-6.301-1.575-3.151-3.151-3.151-7.877 0-11.028l55.138-55.138c3.15-3.151 7.877-3.151 11.028 0s3.15 7.876 0 11.027l-55.139 55.139c0 1.575-1.575 1.575-4.726 1.575z" p-id="1547"></path><path d="M563.988 357.612c-1.576 0-4.726 0-6.302-1.575l-11.028-11.028c-3.15-3.15-3.15-7.877 0-11.027s7.877-3.151 11.028 0l11.028 11.027c3.15 3.151 3.15 7.877 0 11.028-1.576 0-3.15 1.575-4.726 1.575z m166.99-56.714c-1.575 0-4.726 0-6.301-1.575l-44.11-44.11c-3.152-3.151-3.152-7.878 0-11.028s7.876-3.151 11.027 0l44.11 44.11c3.151 3.151 3.151 7.877 0 11.028-1.575 1.575-3.15 1.575-4.726 1.575z m-56.713-55.138c-1.576 0-4.727 0-6.302-1.575l-11.028-11.028c-3.15-3.15-3.15-7.877 0-11.028s7.877-3.15 11.028 0l11.028 11.028c3.15 3.15 3.15 7.877 0 11.028 0 1.575-1.576 1.575-4.726 1.575zM430.08 669.538c-1.575 0-4.726 0-6.302-1.575l-22.055-22.055c-3.15-3.151-3.15-7.877 0-11.028 3.15-3.15 7.877-3.15 11.028 0l22.055 22.055c3.15 3.151 3.15 7.877 0 11.028-1.575 0-3.15 1.575-4.726 1.575z" p-id="1548"></path><path d="M474.19 803.446c-3.15 0-6.3-1.575-7.876-4.726l-55.139-122.88c-1.575-4.726 0-7.877 3.151-11.028 4.726-1.575 7.877 0 11.028 3.151l55.138 122.88c1.576 4.726 0 7.877-3.15 11.028 0 0-1.576 1.575-3.151 1.575z" p-id="1549"></path><path d="M430.08 825.502c-3.15 0-6.302-1.576-6.302-4.727-1.575-3.15 0-7.877 3.151-11.027l44.111-22.056c3.15-1.575 7.877 0 11.028 3.151 1.575 3.15 0 7.877-3.151 11.028l-44.11 22.055c-3.152 1.576-3.152 1.576-4.727 1.576z" p-id="1550"></path><path d="M430.08 825.502c-3.15 0-6.302-1.576-6.302-4.727l-45.686-89.797c-1.575-3.15 0-7.876 3.151-11.027 3.15-1.576 7.877 0 11.028 3.15l44.11 89.797c1.576 3.151 0 7.877-3.15 11.028-1.576 1.576-1.576 1.576-3.151 1.576z" p-id="1551"></path><path d="M385.97 735.705h-3.152l-33.083-11.028c-4.726-1.575-6.301-6.302-4.726-9.452 1.576-4.727 6.302-6.302 9.453-4.727l33.083 11.028c4.726 1.576 6.301 6.302 4.726 9.452 0 3.151-3.151 4.727-6.302 4.727z m250.485-160.69c-36.233 0-72.467-14.178-100.824-40.96-3.151-3.15-3.151-7.877 0-11.027 3.15-3.151 7.877-3.151 11.027 0 44.111 42.535 111.853 48.837 160.69 14.178 3.15-3.15 7.877-1.575 11.027 1.576 3.151 3.15 1.576 7.876-1.575 11.027-23.63 15.754-51.988 25.206-80.345 25.206z m0 63.016c-53.563 0-105.55-20.48-144.935-59.865-3.15-3.15-3.15-7.877 0-11.028s7.877-3.15 11.028 0c59.864 59.865 151.237 72.468 225.28 31.508 3.15-1.575 7.877 0 11.027 3.15 1.576 3.152 0 7.878-3.15 11.029-31.508 15.753-66.167 25.206-99.25 25.206z" p-id="1552"></path><path d="M636.455 606.523c-39.384 0-78.769-14.178-110.277-39.385-3.15-3.15-3.15-7.876-1.575-11.027 3.15-3.151 7.877-3.151 11.028-1.576 42.535 34.659 100.824 45.687 152.812 26.782 4.726-1.575 7.877 0 9.452 4.726s0 7.877-4.726 9.452c-17.329 7.877-37.809 11.028-56.714 11.028z m94.523 6.302c-3.15 0-6.301-1.576-7.876-6.302l-18.905-63.015c-1.575-4.726 1.575-7.877 4.726-9.453 4.726-1.575 7.877 1.576 9.452 4.727l18.905 63.015c1.575 4.726-1.575 7.877-4.726 9.452 0 1.576-1.576 1.576-1.576 1.576z m-200.073-222.13c-1.576 0-4.727 0-6.302-1.575l-11.028-11.028c-3.15-3.15-3.15-7.877 0-11.027s7.877-3.151 11.028 0l11.028 11.027c3.15 3.151 3.15 7.877 0 11.028-1.576 0-3.151 1.575-4.726 1.575z m-45.687 222.13c-1.575 0-4.726 0-6.301-1.576l-22.055-22.055c-3.151-3.15-3.151-7.877 0-11.028s7.876-3.15 11.027 0l22.056 22.056c3.15 3.15 3.15 7.876 0 11.027 0 1.576-1.576 1.576-4.727 1.576z" p-id="1553"></path><path d="M485.218 636.455c-1.575 0-4.726 0-6.301-1.575-3.15-3.15-3.15-7.877 0-11.028 3.15-3.15 3.15-7.877 0-11.027-3.15-3.151-3.15-7.877 0-11.028s7.877-3.15 11.028 0c9.452 9.452 9.452 23.63 0 33.083 0 0-1.576 1.575-4.727 1.575z" p-id="1554"></path><path d="M452.135 669.538c-1.575 0-4.726 0-6.301-1.575-3.15-3.15-3.15-7.877 0-11.028l33.083-33.083c3.15-3.15 7.877-3.15 11.028 0s3.15 7.877 0 11.028l-33.083 33.083s-3.151 1.575-4.727 1.575z" p-id="1555"></path><path d="M441.108 674.265c-6.302 0-12.603-1.576-17.33-6.302-3.15-3.15-3.15-7.877 0-11.028s7.877-3.15 11.028 0c3.15 3.151 7.877 3.151 11.028 0l11.028 11.028c-3.151 3.15-9.453 6.302-15.754 6.302z m-22.056-127.607c-1.575 0-4.726 0-6.301-1.575-3.151-3.15-3.151-7.877 0-11.028l66.166-66.166c3.15-3.15 7.877-3.15 11.028 0s3.15 7.877 0 11.028l-66.167 66.166c-1.575 1.575-3.15 1.575-4.726 1.575z" p-id="1556"></path><path d="M496.246 491.52c-1.575 0-4.726 0-6.301-1.575l-11.028-11.028c-3.15-3.15-3.15-7.877 0-11.028s7.877-3.15 11.028 0l11.027 11.028c3.151 3.15 3.151 7.877 0 11.028 0 0-1.575 1.575-4.726 1.575zM318.228 647.483c-1.576 0-4.726 0-6.302-1.575-3.15-3.151-3.15-7.877 0-11.028l44.11-44.11c3.152-3.152 7.878-3.152 11.029 0s3.15 7.876 0 11.027l-44.111 44.11s-1.576 1.576-4.726 1.576z m133.907-7.877c-6.301 0-12.603-3.15-17.329-6.301-3.15-3.151-3.15-7.877 0-11.028 3.15-3.15 7.877-3.15 11.028 0 1.575 1.575 3.15 1.575 4.726 1.575 1.575 0 4.726-1.575 6.302-3.15 3.15-3.151 7.876-3.151 11.027 0 3.151 3.15 3.151 7.876 0 11.027-3.15 6.302-9.452 7.877-15.754 7.877z m256.788-382.818c-1.575 0-4.726 0-6.301-1.576-3.151-3.15-3.151-7.877 0-11.027L926.326 20.48c3.15-3.15 7.877-3.15 11.028 0s3.15 7.877 0 11.028L713.649 255.212c-1.575 1.576-3.15 1.576-4.726 1.576z m20.48 23.63c-1.575 0-4.726 0-6.301-1.575-3.151-3.15-3.151-7.877 0-11.028L959.409 31.508c3.151-3.151 7.877-3.151 11.028 0s3.15 7.877 0 11.027L735.705 277.268c-1.576 1.575-3.151 3.15-6.302 3.15z" p-id="1557"></path><path d="M964.135 45.686h-3.15l-31.508-12.603c-4.726-1.575-6.302-6.301-4.726-9.452 1.575-4.726 6.301-6.302 9.452-4.726l33.083 12.603c4.726 1.575 6.302 6.301 4.726 9.452-1.575 1.575-4.726 4.726-7.877 4.726zM921.6 44.111c-1.575 0-4.726 0-6.302-1.576L893.243 20.48c-3.15-3.15-3.15-7.877 0-11.028s7.877-3.15 11.028 0l22.055 22.056c3.15 3.15 3.15 7.877 0 11.027-1.575 1.576-3.15 1.576-4.726 1.576zM685.292 234.732c-1.575 0-4.726 0-6.301-1.575-3.151-3.15-3.151-7.877 0-11.028l78.769-78.769c3.15-3.15 7.877-3.15 11.028 0s3.15 7.877 0 11.028l-78.77 78.769c0 1.575-3.15 1.575-4.726 1.575z" p-id="1558"></path><path d="M808.172 155.963h-44.11c-4.727 0-7.877-3.15-7.877-7.877s3.15-7.877 7.877-7.877h44.11c4.726 0 7.877 3.151 7.877 7.877s-3.15 7.877-7.877 7.877z" p-id="1559"></path></svg>