<?xml version="1.0" standalone="no"?><!DOCTYPE svg PUBLIC "-//W3C//DTD SVG 1.1//EN" "http://www.w3.org/Graphics/SVG/1.1/DTD/svg11.dtd"><svg t="1648297186835" class="icon" viewBox="0 0 1024 1024" version="1.1" xmlns="http://www.w3.org/2000/svg" p-id="1125" xmlns:xlink="http://www.w3.org/1999/xlink" width="200" height="200"><defs><style type="text/css"></style></defs><path d="M763.221333 544.277333l9.130667-41.685333C903.573333 531.370667 981.333333 583.552 981.333333 658.069333c0 120.405333-211.264 208.853333-469.333333 208.853334S42.666667 778.453333 42.666667 658.048c0-74.517333 77.76-126.72 208.981333-155.477333l9.130667 41.685333C147.2 569.173333 85.333333 610.688 85.333333 658.069333c0 86.698667 189.888 166.186667 426.666667 166.186667s426.666667-79.488 426.666667-166.186667c0-47.381333-61.845333-88.896-175.445334-113.792z" p-id="1126"></path><path d="M512 653.098667c-166.4 0-286.08-76.586667-286.08-203.349334C225.92 318.101333 354.901333 213.333333 512 213.333333s286.08 104.746667 286.08 236.416c0 126.784-119.68 203.349333-286.08 203.349334z m0-42.666667c145.749333 0 243.413333-62.485333 243.413333-160.682667C755.413333 343.829333 647.274667 256 512 256c-135.296 0-243.413333 87.829333-243.413333 193.749333 0 98.197333 97.664 160.682667 243.413333 160.682667z" p-id="1127"></path><path d="M226.56 458.666667h42.666667c0 8.618667-0.085333 15.786667-0.298667 29.610666-1.578667 93.653333 6.464 119.381333 60.224 150.549334 51.584 29.909333 113.578667 46.293333 178.752 46.293333 65.493333 0 127.765333-16.554667 179.477333-46.72 58.816-34.325333 68.181333-63.68 67.989334-168.853333v-10.88h42.666666v10.794666c0.213333 118.954667-13.376 161.578667-89.152 205.781334-58.304 34.005333-128 52.544-200.981333 52.544-72.64 0-142.016-18.346667-200.149333-52.053334-70.976-41.130667-83.306667-80.554667-81.493334-188.16 0.213333-13.589333 0.298667-20.586667 0.298667-28.906666zM574.976 368.512a16 16 0 1 1 22.144-23.082667c16.810667 16.149333 36.586667 24.064 60.16 24.064a16 16 0 0 1 0 32c-31.808 0-59.52-11.093333-82.304-32.981333z" p-id="1128"></path></svg>