<?xml version="1.0" standalone="no"?><!DOCTYPE svg PUBLIC "-//W3C//DTD SVG 1.1//EN" "http://www.w3.org/Graphics/SVG/1.1/DTD/svg11.dtd"><svg t="1648297192131" class="icon" viewBox="0 0 1103 1024" version="1.1" xmlns="http://www.w3.org/2000/svg" p-id="1393" xmlns:xlink="http://www.w3.org/1999/xlink" width="215.4296875" height="200"><defs><style type="text/css"></style></defs><path d="M1096.319042 454.295614a33.160264 33.160264 0 0 0-12.390885-50.458868 583.277987 583.277987 0 0 0-244.789067-53.27749h-5.747779c-14.70105-15.08792-44.03683-44.688982-77.163934-75.284853-52.304789-48.23713-91.312313-78.280329-119.365896-91.78761-43.19677-20.857806-75.163265-16.093781-103.44897-11.882428-22.383178 3.316026-43.51732 6.477305-75.682776-1.215876-16.403277-3.923965-56.295075-20.260921-139.074146-85.564534-49.01087-38.686974-88.858454-75.572241-89.245323-75.937004a33.160264 33.160264 0 0 0-33.690828-6.941549c-42.577779 15.143187-93.843547 57.37831-96.054231 172.488639a448.967865 448.967865 0 0 0 1.68012 46.999147l-16.690666-10.014399a33.160264 33.160264 0 0 0-42.986756 7.737395c-5.39407 6.764694-52.349003 67.768526-39.427553 124.682591 4.178193 18.403946 16.359063 43.826815 50.602562 60.539589 54.736542 27.799354 100.12189 62.717112 134.907007 103.780572a353.64316 353.64316 0 0 1 62.440777 107.218186 381.055645 381.055645 0 0 1 22.217376 152.470893 606.523332 606.523332 0 0 0 4.985093 196.485617 33.160264 33.160264 0 0 0 65.723643-7.018923v-0.541617c0-93.744066 76.268607-170.012673 170.012673-170.012673a168.012003 168.012003 0 0 1 107.063438 37.935342 169.802658 169.802658 0 0 1 60.495375 103.150527 33.160264 33.160264 0 0 0 61.401755 10.987101 367.062014 367.062014 0 0 0 39.648622-100.033462 410.081929 410.081929 0 0 1 250.260511 170.576397A33.160264 33.160264 0 0 0 1092.638253 990.386546a520.472447 520.472447 0 0 0-175.019872-382.802086A587.124578 587.124578 0 0 0 1096.319042 454.295614z m-443.651169-102.70839a27.633553 27.633553 0 0 1-23.543787 13.175678 27.246683 27.246683 0 0 1-6.698374-0.829007l-132.641055-33.160263a27.633553 27.633553 0 0 1 6.698373-54.4381h103.90216a27.633553 27.633553 0 0 1 20.879913 9.539102l28.738895 33.160264a27.633553 27.633553 0 0 1 2.663875 32.552326z" p-id="1394"></path></svg>