<?xml version="1.0" standalone="no"?><!DOCTYPE svg PUBLIC "-//W3C//DTD SVG 1.1//EN" "http://www.w3.org/Graphics/SVG/1.1/DTD/svg11.dtd"><svg t="1648297189379" class="icon" viewBox="0 0 1024 1024" version="1.1" xmlns="http://www.w3.org/2000/svg" p-id="1261" xmlns:xlink="http://www.w3.org/1999/xlink" width="200" height="200"><defs><style type="text/css"></style></defs><path d="M650.3 676.6c-18.5 0-33.5 15-33.5 33.5s15 33.5 33.5 33.5 33.5-15 33.5-33.5c0.1-18.5-15-33.5-33.5-33.5z m10.2 33.5c0 5.6-4.6 10.2-10.2 10.2s-10.2-4.6-10.2-10.2 4.6-10.2 10.2-10.2 10.2 4.6 10.2 10.2zM732.1 591.6c-18.5 0-33.5 15-33.5 33.5s15 33.5 33.5 33.5 33.5-15 33.5-33.5c0.1-18.4-15-33.5-33.5-33.5z m10.2 33.6c0 5.6-4.6 10.2-10.2 10.2s-10.2-4.6-10.2-10.2 4.6-10.2 10.2-10.2 10.2 4.6 10.2 10.2z" fill="" p-id="1262"></path><path d="M810.9 560.7c-2.4-7-5.3-13.6-8.4-19.7-2-3.9-6-6.3-10.4-6.3H510.8c-4.2 0-8.2 2.3-10.2 6-3.6 6.5-6.7 13.1-9.4 20-6.3 15.9-10.1 32.7-11.5 49.8-0.3 4.4-0.5 8.8-0.5 13.3 0 12.4 1.3 24.7 3.9 36.5 3.8 17.6 10.3 34.3 19.4 49.8 7.3 12.5 16.3 24.2 26.9 34.8 5.4 5.4 11.1 10.4 17.1 15 29.7 22.8 65.9 35.2 104 35.2 38.1 0 74.3-12.4 104-35.2 6-4.6 11.7-9.6 17.1-15 10.6-10.6 19.5-22.2 26.9-34.8 9.1-15.5 15.6-32.2 19.4-49.8 2.6-11.9 3.9-24.1 3.9-36.5 0-4.4-0.2-8.8-0.5-13.3-1.4-17-5-34.2-10.4-49.8z m-17.2 99.6c-4.6 18.2-12.6 35-23.3 49.8-15.7 21.8-37.2 39.1-62.1 49.8-17.8 7.6-37.4 11.8-57.9 11.8s-40.1-4.2-57.9-11.8c-25-10.7-46.4-28-62.1-49.8-10.7-14.8-18.7-31.6-23.3-49.8-3-11.7-4.6-23.9-4.6-36.5 0-4.4 0.2-8.9 0.6-13.3 1.6-17.3 6.1-34.2 13.5-49.8 0.4-0.9 0.8-1.8 1.3-2.6h266.9c0.4 0.9 0.8 1.8 1.1 2.6 6.2 14.9 10.4 32.4 11.8 49.8 0.4 4.4 0.6 8.9 0.6 13.3 0 12.6-1.6 24.8-4.6 36.5z" fill="" p-id="1263"></path><path d="M893.8 610.5c-0.8-17-3.3-33.6-7.5-49.8-4.5-17.2-10.8-33.9-19-49.8-6.6-12.8-14.4-25.1-23.3-36.7-3.4-4.5-7-8.8-10.8-13.1-17.6-20-38.5-36.9-61.5-50.2-14.6-8.4-30-15.3-46-20.5V223.3h46.2c10.6 0 20.1-4.5 26.8-11.7 6.1-6.5 9.8-15.3 9.8-24.9 0-9.6-3.7-18.4-9.8-24.9-6.7-7.2-16.2-11.7-26.8-11.7H524.2c-10.6 0-20.1 4.5-26.8 11.7-6.1 6.5-9.8 15.3-9.8 24.9 0 9.6 3.7 18.4 9.8 24.9 6.7 7.2 16.2 11.7 26.8 11.7h40v170.9c-12.4 4.7-24.2 10.3-35.4 16.7-23.3 13.4-44 30.4-61.4 50.2-13.3 15.1-24.7 31.8-33.9 49.8-8.1 15.7-14.5 32.4-19 49.8-3.1 11.9-5.3 24-6.6 36.4l-21-36.4-4.4-7.6V366.9h12.9c7.1 0 13.7-2.1 19.3-5.6 10.1-6.4 16.9-17.7 16.9-30.6 0-7.1-2.1-13.7-5.6-19.3-6.4-10.2-17.7-16.9-30.6-16.9H259.7c-12.9 0-24.2 6.8-30.6 16.9-3.5 5.6-5.6 12.2-5.6 19.3 0 12.9 6.7 24.2 16.9 30.6 5.6 3.6 12.2 5.6 19.3 5.6h8.2v186.3l-4.4 7.6-28.7 49.8-28.8 49.7-28.7 49.8-28.7 49.8-15.1 26.2c-4.3 7.4-6.7 15.5-7.1 23.6-0.6 10.2 1.8 20.5 7.1 29.8 4.9 8.6 11.9 15.4 20.1 20 7.8 4.4 16.8 6.8 26.2 6.8h290.9c9.4 0 18.4-2.4 26.2-6.8 8.2-4.6 15.1-11.4 20.1-20 1.9-3.3 3.4-6.6 4.5-10.1 22.1 13.8 46.3 24 71.6 30 18.5 4.4 37.7 6.7 57.3 6.7s38.7-2.3 57.3-6.7c36.2-8.7 69.9-25.6 98.8-49.8 5.6-4.7 11-9.6 16.3-14.9 10.8-10.8 20.5-22.5 29-34.9 10.7-15.6 19.5-32.3 26.2-49.8 6.2-16 10.6-32.7 13.3-49.8 1.9-12.4 2.9-25.1 2.9-37.9-0.1-3.9-0.2-7.8-0.4-11.8zM500.7 814.9c-0.3 4.5-1.6 8.9-4 12.9-5.4 9.4-15.2 15-26 15h-291c-10.9 0-20.6-5.6-26-15-3.3-5.7-4.6-12-3.9-18.1 0.4-4.1 1.7-8.2 3.9-11.9l21.9-37.9 28.7-49.8 28.7-49.8 28.7-49.8 26.5-45.8c1-1.1 1.8-2.5 2.4-3.9 0.4-1.2 0.7-2.6 0.7-3.9V355.2c0-6.5-5.2-11.7-11.7-11.7h-19.9c-7.1 0-12.9-5.8-12.9-12.9s5.8-12.9 12.9-12.9h135.5c7.1 0 12.9 5.8 12.9 12.9s-5.8 12.9-12.9 12.9h-24.5c-6.5 0-11.7 5.2-11.7 11.7V556.8c0 1.4 0.3 2.7 0.7 3.9 0.5 1.5 1.3 2.8 2.4 3.9l26.5 45.8 18.9 32.7 9.9 17.1 28.7 49.8 28.7 49.8 21.9 37.9c2.2 3.8 3.5 7.8 3.9 11.9 0.2 1.8 0.2 3.5 0.1 5.3z m366.8-154.6c-3 17.4-8.1 34.1-14.9 49.8-7.8 18-18 34.7-30 49.8-15.7 19.6-34.6 36.5-56 49.8-33.7 21-73.5 33.2-116.1 33.2-42.6 0-82.4-12.2-116.1-33.2-3.8-2.4-7.5-4.8-11.1-7.4-1.1-5.6-3.2-11.1-6.2-16.2L502 759.9l-29-49.8-28.7-49.8-13.9-24.1c-0.3-4.6-0.4-9.1-0.4-13.8 0-4 0.1-7.9 0.3-11.9 0.9-17.1 3.8-33.8 8.4-49.8 5.1-17.5 12.3-34.2 21.4-49.8 10.8-18.4 24.2-35.2 39.8-49.8 22.4-20.9 49.3-37.3 79.6-47.6 0.1 0 0.2-0.1 0.3-0.1 0.2-0.1 0.5-0.2 0.7-0.3 0.1-0.1 0.3-0.1 0.4-0.2l0.6-0.3c0.2-0.1 0.3-0.2 0.5-0.3 0.2-0.1 0.3-0.2 0.4-0.3 0.2-0.1 0.3-0.3 0.5-0.4 0.1-0.1 0.2-0.2 0.4-0.3 0.2-0.1 0.3-0.3 0.5-0.4l0.3-0.3c0.1-0.2 0.3-0.3 0.4-0.5 0.1-0.1 0.2-0.3 0.3-0.4 0.1-0.2 0.2-0.3 0.3-0.5 0.1-0.2 0.2-0.3 0.3-0.5 0.1-0.1 0.2-0.3 0.3-0.4l0.3-0.6c0.1-0.1 0.1-0.3 0.2-0.4l0.3-0.6c0.1-0.1 0.1-0.3 0.2-0.4 0.1-0.2 0.1-0.4 0.2-0.6 0-0.2 0.1-0.3 0.1-0.5s0.1-0.4 0.1-0.6c0-0.2 0.1-0.4 0.1-0.7 0-0.2 0-0.3 0.1-0.5v-0.8V220c0-1.4-0.3-2.8-0.8-4.1 0.5-1.3 0.8-2.7 0.8-4.1 0-6.5-5.2-11.7-11.7-11.7h-51.7c-7.3 0-13.3-5.9-13.3-13.3 0-7.3 5.9-13.3 13.3-13.3h247.7c7.3 0 13.3 5.9 13.3 13.3 0 7.3-5.9 13.3-13.3 13.3H714c-6.5 0-11.7 5.2-11.7 11.7 0 1.4 0.3 2.8 0.8 4.1-0.5 1.3-0.8 2.7-0.8 4.1v180.5c0 0.2 0.1 0.5 0.1 0.7 0 0.2 0.1 0.3 0.1 0.5s0.1 0.4 0.1 0.5c0.1 0.2 0.1 0.4 0.2 0.6 0 0.1 0.1 0.3 0.1 0.4 0.1 0.2 0.2 0.5 0.3 0.7 0 0.1 0.1 0.2 0.2 0.3 0.1 0.2 0.2 0.5 0.3 0.7 0.1 0.1 0.1 0.2 0.2 0.3 0.1 0.2 0.2 0.4 0.4 0.6 0.1 0.2 0.2 0.3 0.3 0.4 0.1 0.1 0.2 0.3 0.3 0.4 0.2 0.2 0.3 0.4 0.5 0.5l0.3 0.3c0.2 0.2 0.4 0.4 0.6 0.5 0.1 0.1 0.2 0.2 0.3 0.2 0.2 0.2 0.4 0.3 0.6 0.4 0.1 0.1 0.2 0.2 0.3 0.2 0.2 0.1 0.4 0.2 0.5 0.3 0.2 0.1 0.3 0.2 0.5 0.3 0.1 0.1 0.3 0.1 0.4 0.2l0.6 0.3c0.1 0 0.2 0.1 0.4 0.1 0.2 0.1 0.5 0.2 0.7 0.3h0.1c0.7 0.2 1.4 0.4 2.2 0.6 33.4 9.9 63.1 27.3 87.5 50.2 15.6 14.6 29 31.4 39.9 49.8 9.1 15.6 16.4 32.3 21.6 49.8 4.7 16 7.6 32.7 8.5 49.8 0.2 3.9 0.3 7.9 0.3 11.9 0.1 13-1.1 25.7-3.2 38z" fill="" p-id="1264"></path></svg>